<svg width="40" height="27" viewBox="0 0 40 27" fill="none" xmlns="http://www.w3.org/2000/svg">
<g clip-path="url(#clip0_72_4715)">
<path d="M0 0.09375H40V26.9061H0V0.09375Z" fill="white"/>
<path d="M0 0.09375H40V2.15628H0V0.09375ZM0 4.21881H40V6.28134H0V4.21881ZM0 8.34369H40V10.4062H0V8.34369ZM0 12.4688H40V14.5313H0V12.4688ZM0 16.5936H40V18.6562H0V16.5936ZM0 20.7187H40V22.7812H0V20.7187ZM0 24.8436H40V26.9061H0V24.8436Z" fill="#B22234"/>
<path d="M0 0.09375H16V14.5311H0V0.09375Z" fill="#3C3B6E"/>
<path d="M0.751709 1.26579L1.13291 1.61849L0.987309 2.18922L1.36838 1.83652L1.74958 2.18922L1.60398 1.61849L1.98504 1.26579H1.51398L1.36838 0.695221L1.22278 1.26579H0.751709ZM3.40438 1.26579L3.78544 1.61849L3.63984 2.18922L4.02104 1.83652L4.40224 2.18922L4.25664 1.61849L4.63771 1.26579H4.16664L4.02104 0.695221L3.87544 1.26579H3.40438ZM6.05704 1.26579L6.43811 1.61849L6.29251 2.18922L6.67371 1.83652L7.05478 2.18922L6.90918 1.61849L7.29038 1.26579H6.81931L6.67371 0.695221L6.52811 1.26579H6.05704ZM8.70971 1.26579L9.09078 1.61849L8.94518 2.18922L9.32638 1.83652L9.70744 2.18922L9.56184 1.61849L9.94304 1.26579H9.47184L9.32638 0.695221L9.18078 1.26579H8.70971ZM11.3622 1.26579L11.7434 1.61849L11.5978 2.18922L11.9789 1.83652L12.3601 2.18922L12.2145 1.61849L12.5956 1.26579H12.1245L11.9789 0.695221L11.8333 1.26579H11.3622ZM14.0149 1.26579L14.396 1.61849L14.2504 2.18922L14.6316 1.83652L15.0126 2.18922L14.867 1.61849L15.2482 1.26579H14.7772L14.6316 0.695221L14.486 1.26579H14.0149ZM2.07798 2.71377L2.45918 3.06647L2.31358 3.63703L2.69478 3.28433L3.07584 3.63703L2.93024 3.06647L3.31144 2.71377H2.84024L2.69478 2.14303L2.54918 2.71377H2.07798ZM4.73064 2.71377L5.11184 3.06647L4.96624 3.63703L5.34731 3.28433L5.72851 3.63703L5.58291 3.06647L5.96398 2.71377H5.49291L5.34731 2.14303L5.20171 2.71377H4.73064ZM7.38331 2.71377L7.76451 3.06647L7.61891 3.63703L7.99998 3.28433L8.38118 3.63703L8.23558 3.06647L8.61664 2.71377H8.14558L7.99998 2.14303L7.85438 2.71377H7.38331ZM10.036 2.71377L10.417 3.06647L10.2714 3.63703L10.6526 3.28433L11.0337 3.63703L10.8881 3.06647L11.2693 2.71377H10.7982L10.6526 2.14303L10.507 2.71377H10.036ZM12.6885 2.71377L13.0697 3.06647L12.9241 3.63703L13.3052 3.28433L13.6864 3.63703L13.5408 3.06647L13.9218 2.71377H13.4508L13.3052 2.14303L13.1597 2.71377H12.6885ZM0.751709 4.16158L1.13291 4.51428L0.987309 5.08501L1.36838 4.73232L1.74958 5.08501L1.60398 4.51428L1.98504 4.16158H1.51398L1.36838 3.59101L1.22278 4.16158H0.751709ZM3.40438 4.16158L3.78544 4.51428L3.63984 5.08501L4.02104 4.73232L4.40224 5.08501L4.25664 4.51428L4.63771 4.16158H4.16664L4.02104 3.59101L3.87544 4.16158H3.40438ZM6.05704 4.16158L6.43811 4.51428L6.29251 5.08501L6.67371 4.73232L7.05478 5.08501L6.90918 4.51428L7.29038 4.16158H6.81931L6.67371 3.59101L6.52811 4.16158H6.05704ZM8.70971 4.16158L9.09078 4.51428L8.94518 5.08501L9.32638 4.73232L9.70744 5.08501L9.56184 4.51428L9.94304 4.16158H9.47184L9.32638 3.59101L9.18078 4.16158H8.70971ZM11.3622 4.16158L11.7434 4.51428L11.5978 5.08501L11.9789 4.73232L12.3601 5.08501L12.2145 4.51428L12.5956 4.16158H12.1245L11.9789 3.59101L11.8333 4.16158H11.3622ZM14.0149 4.16158L14.396 4.51428L14.2504 5.08501L14.6316 4.73232L15.0126 5.08501L14.867 4.51428L15.2482 4.16158H14.7772L14.6316 3.59101L14.486 4.16158H14.0149ZM2.11078 5.61432L2.49184 5.96701L2.34638 6.53758L2.72744 6.18488L3.10864 6.53758L2.96304 5.96684L3.34411 5.61432H2.87304L2.72744 5.04358L2.58184 5.61432H2.11078ZM4.76344 5.61432L5.14451 5.96701L4.99891 6.53758L5.38011 6.18488L5.76118 6.53758L5.61558 5.96684L5.99678 5.61432H5.52571L5.38011 5.04358L5.23451 5.61432H4.76344ZM7.41611 5.61432L7.79718 5.96701L7.65158 6.53758L8.03278 6.18488L8.41384 6.53758L8.26824 5.96684L8.64944 5.61432H8.17824L8.03278 5.04358L7.88718 5.61432H7.41611ZM10.0686 5.61432L10.4498 5.96701L10.3042 6.53758L10.6853 6.18488L11.0665 6.53758L10.9209 5.96684L11.302 5.61432H10.8309L10.6853 5.04358L10.5397 5.61432H10.0686ZM12.7213 5.61432L13.1024 5.96701L12.9568 6.53758L13.338 6.18488L13.719 6.53758L13.5734 5.96684L13.9546 5.61432H13.4836L13.338 5.04358L13.1924 5.61432H12.7213ZM0.791976 7.05007L1.17318 7.4026L1.02758 7.97333L1.40864 7.62064L1.78984 7.97333L1.64424 7.4026L2.02531 7.05007H1.55424L1.40864 6.47933L1.26304 7.05007H0.791976ZM3.44464 7.05007L3.82571 7.4026L3.68011 7.97333L4.06131 7.62064L4.44238 7.97333L4.29691 7.4026L4.67798 7.05007H4.20691L4.06131 6.47933L3.91571 7.05007H3.44464ZM6.09731 7.05007L6.47838 7.4026L6.33278 7.97333L6.71398 7.62064L7.09504 7.97333L6.94944 7.4026L7.33064 7.05007H6.85958L6.71398 6.47933L6.56838 7.05007H6.09731ZM8.74984 7.05007L9.13104 7.4026L8.98544 7.97333L9.36651 7.62064L9.74771 7.97333L9.60211 7.4026L9.98331 7.05007H9.51211L9.36651 6.47933L9.22104 7.05007H8.74984ZM11.4025 7.05007L11.7836 7.4026L11.6381 7.97333L12.0192 7.62064L12.4004 7.97333L12.2548 7.4026L12.6358 7.05007H12.1648L12.0192 6.47933L11.8736 7.05007H11.4025ZM14.0552 7.05007L14.4362 7.4026L14.2906 7.97333L14.6718 7.62064L15.0529 7.97333L14.9073 7.4026L15.2885 7.05007H14.8174L14.6718 6.47933L14.5262 7.05007H14.0552ZM0.816909 9.89984L1.19798 10.2525L1.05238 10.8233L1.43358 10.4706L1.81464 10.8233L1.66904 10.2525L2.05024 9.89984H1.57918L1.43358 9.32928L1.28798 9.89984H0.816909ZM3.46944 9.89984L3.85064 10.2525L3.70504 10.8233L4.08611 10.4706L4.46731 10.8233L4.32171 10.2525L4.70278 9.89984H4.23171L4.08611 9.32928L3.94051 9.89984H3.46944ZM6.12211 9.89984L6.50318 10.2525L6.35771 10.8233L6.73878 10.4706L7.11998 10.8233L6.97438 10.2525L7.35544 9.89984H6.88438L6.73878 9.32928L6.59318 9.89984H6.12211ZM8.77478 9.89984L9.15584 10.2525L9.01024 10.8233L9.39144 10.4706L9.77251 10.8233L9.62704 10.2525L10.0081 9.89984H9.53704L9.39144 9.32928L9.24584 9.89984H8.77478ZM11.4273 9.89984L11.8085 10.2525L11.6629 10.8233L12.044 10.4706L12.4252 10.8233L12.2796 10.2525L12.6608 9.89984H12.1896L12.044 9.32928L11.8985 9.89984H11.4273ZM14.08 9.89984L14.461 10.2525L14.3156 10.8233L14.6966 10.4706L15.0778 10.8233L14.9322 10.2525L15.3133 9.89984H14.8422L14.6966 9.32928L14.551 9.89984H14.08ZM0.784509 12.7832L1.16558 13.1359L1.01998 13.7067L1.40118 13.354L1.78224 13.7067L1.63664 13.1359L2.01784 12.7832H1.54664L1.40118 12.2127L1.25558 12.7832H0.784509ZM3.43704 12.7832L3.81824 13.1359L3.67264 13.7067L4.05371 13.354L4.43491 13.7067L4.28931 13.1359L4.67038 12.7832H4.19931L4.05371 12.2127L3.90811 12.7832H3.43704ZM6.08971 12.7832L6.47078 13.1359L6.32531 13.7067L6.70638 13.354L7.08758 13.7067L6.94198 13.1359L7.32304 12.7832H6.85198L6.70638 12.2127L6.56078 12.7832H6.08971ZM8.74238 12.7832L9.12344 13.1359L8.97784 13.7067L9.35904 13.354L9.74011 13.7067L9.59464 13.1359L9.97571 12.7832H9.50464L9.35904 12.2127L9.21344 12.7832H8.74238ZM11.3949 12.7832L11.7761 13.1359L11.6305 13.7067L12.0116 13.354L12.3928 13.7067L12.2472 13.1359L12.6284 12.7832H12.1572L12.0116 12.2127L11.8661 12.7832H11.3949ZM14.0476 12.7832L14.4286 13.1359L14.2832 13.7067L14.6642 13.354L15.0454 13.7067L14.8998 13.1359L15.2809 12.7832H14.8098L14.6642 12.2127L14.5186 12.7832H14.0476ZM2.11864 8.46069L2.49971 8.81339L2.35424 9.38396L2.73531 9.03126L3.11651 9.38396L2.97091 8.81339L3.35198 8.46069H2.88091L2.73531 7.88996L2.58971 8.46069H2.11864ZM4.77131 8.46069L5.15238 8.81339L5.00678 9.38396L5.38798 9.03126L5.76904 9.38396L5.62358 8.81339L6.00464 8.46069H5.53358L5.38798 7.88996L5.24238 8.46069H4.77131ZM7.42398 8.46069L7.80504 8.81339L7.65944 9.38396L8.04064 9.03126L8.42171 9.38396L8.27611 8.81339L8.65731 8.46069H8.18624L8.04064 7.88996L7.89504 8.46069H7.42398ZM10.0765 8.46069L10.4577 8.81339L10.3121 9.38396L10.6932 9.03126L11.0744 9.38396L10.9288 8.81339L11.3098 8.46069H10.8388L10.6932 7.88996L10.5476 8.46069H10.0765ZM12.7292 8.46069L13.1102 8.81339L12.9646 9.38396L13.3458 9.03126L13.7269 9.38396L13.5814 8.81339L13.9625 8.46069H13.4914L13.3458 7.88996L13.2002 8.46069H12.7292ZM2.11078 11.3395L2.49198 11.6922L2.34638 12.2629L2.72744 11.9102L3.10864 12.2629L2.96304 11.6922L3.34411 11.3395H2.87304L2.72744 10.7689L2.58184 11.3395H2.11078ZM4.76344 11.3395L5.14451 11.6922L4.99891 12.2629L5.38011 11.9102L5.76131 12.2629L5.61571 11.6922L5.99678 11.3395H5.52571L5.38011 10.7689L5.23451 11.3395H4.76344ZM7.41611 11.3395L7.79718 11.6922L7.65158 12.2629L8.03278 11.9102L8.41384 12.2629L8.26824 11.6922L8.64944 11.3395H8.17838L8.03278 10.7689L7.88718 11.3395H7.41611ZM10.0686 11.3395L10.4498 11.6922L10.3042 12.2629L10.6853 11.9102L11.0665 12.2629L10.9209 11.6922L11.302 11.3395H10.8309L10.6853 10.7689L10.5397 11.3395H10.0686ZM12.7213 11.3395L13.1024 11.6922L12.9568 12.2629L13.338 11.9102L13.719 12.2629L13.5736 11.6922L13.9546 11.3395H13.4836L13.338 10.7689L13.1924 11.3395H12.7213Z" fill="white"/>
</g>
<defs>
<clipPath id="clip0_72_4715">
<rect width="40" height="27" fill="white"/>
</clipPath>
</defs>
</svg>
