<svg width="14" height="14" viewBox="0 0 14 14" fill="none" xmlns="http://www.w3.org/2000/svg">
<path d="M11.6758 7.90234L12.8242 8.58594C12.8971 8.6224 12.9427 8.67708 12.9609 8.75C12.9974 8.82292 13.0065 8.89583 12.9883 8.96875C12.6784 9.9349 12.1771 10.7917 11.4844 11.5391C11.4297 11.5938 11.3659 11.6302 11.293 11.6484C11.2201 11.6667 11.1471 11.6576 11.0742 11.6211L9.92578 10.9375C9.43359 11.3568 8.8776 11.6758 8.25781 11.8945V13.2344C8.25781 13.3073 8.23047 13.3711 8.17578 13.4258C8.13932 13.4987 8.08464 13.5443 8.01172 13.5625C7.00911 13.7812 6.00651 13.7812 5.00391 13.5625C4.93099 13.5443 4.86719 13.4987 4.8125 13.4258C4.77604 13.3711 4.75781 13.3073 4.75781 13.2344V11.8945C4.13802 11.6758 3.58203 11.3568 3.08984 10.9375L1.94141 11.6211C1.86849 11.6576 1.79557 11.6667 1.72266 11.6484C1.64974 11.6302 1.58594 11.5938 1.53125 11.5391C0.838542 10.7917 0.33724 9.9349 0.0273438 8.96875C0.00911458 8.89583 0.00911458 8.82292 0.0273438 8.75C0.0638021 8.67708 0.11849 8.6224 0.191406 8.58594L1.33984 7.90234C1.23047 7.26432 1.23047 6.6263 1.33984 5.98828L0.191406 5.30469C0.11849 5.26823 0.0638021 5.21354 0.0273438 5.14062C0.00911458 5.06771 0.00911458 4.99479 0.0273438 4.92188C0.33724 3.95573 0.838542 3.09896 1.53125 2.35156C1.58594 2.29688 1.64974 2.26042 1.72266 2.24219C1.79557 2.22396 1.86849 2.23307 1.94141 2.26953L3.08984 2.95312C3.58203 2.53385 4.13802 2.21484 4.75781 1.99609V0.65625C4.75781 0.583333 4.77604 0.519531 4.8125 0.464844C4.86719 0.391927 4.93099 0.346354 5.00391 0.328125C6.00651 0.109375 7.00911 0.109375 8.01172 0.328125C8.08464 0.346354 8.13932 0.391927 8.17578 0.464844C8.23047 0.519531 8.25781 0.583333 8.25781 0.65625V1.99609C8.8776 2.21484 9.43359 2.53385 9.92578 2.95312L11.0742 2.26953C11.1471 2.23307 11.2201 2.22396 11.293 2.24219C11.3659 2.26042 11.4297 2.29688 11.4844 2.35156C12.1771 3.09896 12.6784 3.95573 12.9883 4.92188C13.0065 4.99479 12.9974 5.06771 12.9609 5.14062C12.9427 5.21354 12.8971 5.26823 12.8242 5.30469L11.6758 5.98828C11.7852 6.6263 11.7852 7.26432 11.6758 7.90234ZM8.69531 6.94531C8.69531 6.34375 8.47656 5.83333 8.03906 5.41406C7.61979 4.97656 7.10938 4.75781 6.50781 4.75781C5.90625 4.75781 5.38672 4.97656 4.94922 5.41406C4.52995 5.83333 4.32031 6.34375 4.32031 6.94531C4.32031 7.54688 4.52995 8.06641 4.94922 8.50391C5.38672 8.92318 5.90625 9.13281 6.50781 9.13281C7.10938 9.13281 7.61979 8.92318 8.03906 8.50391C8.47656 8.06641 8.69531 7.54688 8.69531 6.94531Z" fill="white"/>
</svg>
