<svg width="5" height="14" viewBox="0 0 5 14" fill="none" xmlns="http://www.w3.org/2000/svg">
<path d="M4.375 11.8125C4.375 12.4141 4.15625 12.9245 3.71875 13.3438C3.29948 13.7812 2.78906 14 2.1875 14C1.58594 14 1.06641 13.7812 0.628906 13.3438C0.209635 12.9245 0 12.4141 0 11.8125C0 11.2109 0.209635 10.7005 0.628906 10.2812C1.06641 9.84375 1.58594 9.625 2.1875 9.625C2.78906 9.625 3.29948 9.84375 3.71875 10.2812C4.15625 10.7005 4.375 11.2109 4.375 11.8125ZM0.246094 0.683594L0.628906 8.12109C0.628906 8.30339 0.692708 8.45833 0.820312 8.58594C0.947917 8.69531 1.10286 8.75 1.28516 8.75H3.08984C3.27214 8.75 3.42708 8.69531 3.55469 8.58594C3.68229 8.45833 3.74609 8.30339 3.74609 8.12109L4.12891 0.683594C4.12891 0.501302 4.0651 0.346354 3.9375 0.21875C3.8099 0.0729167 3.65495 0 3.47266 0H0.902344C0.720052 0 0.565104 0.0729167 0.4375 0.21875C0.309896 0.346354 0.246094 0.501302 0.246094 0.683594Z" fill="white"/>
</svg>
